<svg xmlns="http://www.w3.org/2000/svg" xmlns:xlink="http://www.w3.org/1999/xlink" fill="none" version="1.1" width="115" height="31" viewBox="0 0 115 31"><clipPath id="master_svg0_5_01"><rect x="0" y="0" width="115" height="31" rx="0"/></clipPath><g clip-path="url(#master_svg0_5_01)"><g><path d="M3.1796875,21.33744916015625C3.1796875,25.79393916015625,9.735837499999999,29.40773916015625,17.824887500000003,29.40773916015625C25.9139875,29.40773916015625,32.4701875,25.79343916015625,32.4701875,21.33744916015625C32.4701875,16.88146916015625,25.9134875,13.26763916015625,17.824887500000003,13.26763916015625C9.7364075,13.26763916015625,3.1796875,16.88095916015625,3.1796875,21.33744916015625Z" fill="#FFFFFF" fill-opacity="1"/><path d="M18.166,28.750302099609375C11.0072,29.375202099609375,4.8277,26.512402099609375,4.36195,22.352602099609374C3.89735,18.193802099609375,9.32592,14.315342099609374,16.4835,13.688952099609375C23.6429,13.062052099609375,29.823,15.925802099609376,30.2876,20.083602099609376C30.7516,24.244002099609375,25.3253,28.123402099609375,18.166,28.750302099609375ZM32.4852,14.942802099609375C31.8763,14.782002099609375,31.4588,14.671502099609375,31.7774,13.963732099609375C32.468,12.425992099609376,32.5393,11.099942099609375,31.7906,10.153482099609375C30.387,8.379132099609375,26.546,8.474292099609375,22.1433,10.106162099609374C22.1433,10.103612099609375,20.761,10.641472099609375,21.114,9.671092099609375C21.7914,7.744092099609375,21.689,6.1305320996093755,20.635,5.198837099609375C18.2471,3.083562099609375,11.895,5.278726099609375,6.44748,10.097512099609375C2.36842,13.707782099609375,0,17.533802099609375,0,20.842302099609373C0,27.170902099609375,9.17068,31.018302099609375,18.1424,31.018302099609375C29.9029,31.018302099609375,37.7263,24.971102099609375,37.7263,20.170702099609375C37.7263,17.269702099609376,34.9657,15.623602099609375,32.4852,14.942802099609375Z" fill="#E6162D" fill-opacity="1"/><path d="M40.2948802734375,3.3618926171875C37.454970273437496,0.5754476171875,33.2655202734375,-0.4865173828125,29.3986502734375,0.2406256171875L29.3974902734375,0.2406256171875C28.5031672734375,0.4096756171875,27.9331282734375,1.1881726171875,28.1241554734375,1.9796126171875C28.3151572734375,2.7709326171875,29.1950302734375,3.2754826171875,30.0892202734375,3.1064526171875C32.8400202734375,2.5894626171875,35.8167902734375,3.3466326171875,37.8373402734375,5.3250326171875C39.7861802734375,7.2362726171875,40.4342802734375,9.9220426171875,39.5375802734375,12.3710326171875L39.538180273437504,12.3715326171875C39.2555802734375,13.1419326171875,39.7335802734375,13.9686326171875,40.6047802734375,14.2166326171875C41.4739802734375,14.4653326171875,42.4067802734375,14.0440326171875,42.6891802734375,13.2752326171875L42.6897802734375,13.2691326171875C43.9018802734375,9.9402726171875,43.1359802734375,6.1452926171875,40.2948802734375,3.3618926171875Z" fill="#FF9933" fill-opacity="1"/><path d="M35.9329291796875,6.8449437890625C34.5506291796875,5.4878447890625,32.5099591796875,4.9723827890625,30.6256791796875,5.3270487890625C29.8355581796875,5.4549637890625,29.3210651796875,6.1351187890625,29.4885594796875,6.8303137890625C29.6560251796875,7.5254137890625,30.4394071796875,7.9607937890625,31.2196591796875,7.7924137890625005L31.2196591796875,7.7934337890625C32.1723391796875,7.6131437890625,33.1615991796875,7.8954637890625,33.815779179687496,8.5343137890625C34.4689691796875,9.1749337890625,34.6853891796875,10.0754737890625,34.3833091796875,10.895873789062499L34.3844591796875,10.895873789062499C34.1423091796875,11.558723789062501,34.5527491796875,12.2696737890625,35.3015791796875,12.484493789062501C36.0507791796875,12.698273789062501,36.8541891796875,12.3342437890625,37.0961591796875,11.6713537890625C37.6884091796875,10.0496637890625,37.3181091796875,8.2015237890625,35.9329291796875,6.8449437890625Z" fill="#FF9933" fill-opacity="1"/><path d="M18.561058515625,21.216886132812498C18.310358515624998,21.5964861328125,17.757208515625003,21.7785861328125,17.323658515625,21.6203861328125C16.897008515625,21.4646861328125,16.763038515625,21.041286132812502,17.005688515625,20.6687861328125C17.255238515625,20.2983861328125,17.787688515625,20.117786132812498,18.212608515625,20.2667861328125C18.645008515625,20.4067861328125,18.800258515625,20.835686132812498,18.561058515625,21.216886132812498ZM16.280038515625,23.8083861328125C15.587738515625,24.7858861328125,14.104808515624999,25.2143861328125,12.987588515625,24.7629861328125C11.887038515625001,24.3197861328125,11.562158515625,23.1835861328125,12.255608515625,22.2304861328125C12.939288515625,21.2814861328125,14.372188515625,20.858086132812502,15.480788515625001,21.2692861328125C16.602038515625,21.6925861328125,16.960838515625,22.8207861328125,16.280038515625,23.8083861328125ZM18.881908515625,16.8890861328125C15.475038515625,16.104466132812497,11.624258515625,17.607086132812498,10.144786515625,20.2637861328125C8.637712515625,22.9728861328125,10.095337515625,25.9801861328125,13.536138515625,26.9637861328125C17.101708515625,27.9809861328125,21.303778515624998,26.4223861328125,22.764878515625,23.4974861328125C24.206378515624998,20.6387861328125,22.407278515625002,17.6955861328125,18.881908515625,16.8890861328125ZM59.776478515625,8.0417761328125C61.976478515625,8.0244761328125,64.05617851562499,7.8382361328125,66.01987851562501,7.4845881328125L66.115878515625,8.5317961328125C63.946378515625,8.7673961328125,62.113278515625,8.922086132812499,60.617678515625,8.9943361328125L59.657478515625,12.1614061328125L65.463778515625,12.1614061328125L65.184378515625,13.085976132812501L62.909078515625,13.085976132812501L60.752878515625,20.2092861328125L59.575778515625,20.2092861328125L61.732078515625,13.085976132812501L59.377978515625,13.085976132812501L59.176178515625,13.7525661328125C58.334378515625,16.534436132812502,56.898578515625,18.7010861328125,54.870578515625,20.2505861328125C54.691178515625,19.9537861328125,54.497978515625,19.663586132812497,54.291578515625,19.3808861328125C56.045278515625,18.1026861328125,57.302878515625,16.2133561328125,58.060678515625,13.710846132812499L59.776478515625,8.0417761328125ZM54.787778515625,15.6958561328125C55.139378515625,16.3202461328125,55.466478515625,16.9551861328125,55.768778515625,17.5994861328125L54.570478515625,18.1978861328125C54.326978515625,17.5239861328125,54.032478515625,16.8653861328125,53.688978515625,16.2265861328125L54.787778515625,15.6958561328125ZM51.238878515625,8.4498761328125L54.674478515625,8.4498761328125C54.547278515625,8.0438561328125,54.409878515625,7.6404091328125,54.262278515625,7.2398331328125L55.403578515625,6.8322456328125C55.591678515625,7.2942791328125,55.757778515625,7.7608921328125,55.900378515625,8.2325961328125L55.302978515625,8.4498761328125L58.682278515625,8.4498761328125L58.418378515625,9.3194961328125L50.975578515625,9.3194961328125L51.238878515625,8.4498761328125ZM49.776678515625,11.6042161328125L52.336578515625,11.6042161328125C52.071478515625,10.9925861328125,51.805878515625,10.4664361328125,51.541378515625,10.0272961328125L52.556778515625,9.5103061328125C52.797178515625,9.8731161328125,53.091578515625,10.385016132812499,53.443978515625,11.0465161328125L52.377378515625,11.6042161328125L54.475578515625,11.6042161328125C55.241678515625,10.9189261328125,55.987578515625,10.2161461328125,56.712278515625,9.4965761328125L57.676578515625,10.0405261328125C57.037578515625,10.5706061328125,56.389278515625,11.0918961328125,55.731978515625,11.6042161328125L58.142878515625,11.6042161328125L57.878978515625,12.473836132812501L49.513278515625,12.473836132812501L49.776678515625,11.6042161328125ZM49.451178515625,14.1464161328125L52.695378515625,14.1464161328125L53.085778515625,12.8549661328125L54.231778515625,12.8549661328125L53.840178515625,14.1464161328125L56.957878515625,14.1464161328125L56.693378515625,15.0160361328125L53.576878515625,15.0160361328125L52.501578515625,18.5641861328125C52.211778515625,19.524886132812497,51.525278515625,20.0052861328125,50.443678515625,20.0052861328125C49.988878515625,20.0052861328125,49.475378515625,20.0011861328125,48.905578515625,19.9920861328125C48.953878515625,19.6923861328125,48.998678515625,19.3483861328125,49.042978515625,18.9590861328125C49.641578515625,19.0135861328125,50.115878515625,19.0399861328125,50.466678515625,19.0399861328125C50.963478515625,19.0399861328125,51.283778515625,18.8099861328125,51.424078515625,18.3474861328125L52.430878515625,15.0165461328125L49.187278515625,15.0165461328125L49.451178515625,14.1464161328125ZM50.227478515625,15.6276761328125L51.177378515625,16.0627361328125C50.363778515625,17.010986132812498,49.516178515625,17.9360861328125,48.635878515625,18.8364861328125C48.377078515625,18.6730861328125,48.076378515625,18.5092861328125,47.734278515625,18.3469861328125C48.462178515625,17.6584861328125,49.292478515625,16.752226132812503,50.227478515625,15.6276761328125ZM79.805478515625,9.3881861328125L72.934178515625,9.3881861328125L72.432778515625,11.0460161328125L79.304078515625,11.0460161328125L79.805478515625,9.3881861328125ZM78.534178515625,13.5887261328125L79.038978515625,11.916646132812499L72.16827851562499,11.916646132812499L71.66287851562501,13.5887261328125L78.534178515625,13.5887261328125ZM79.569178515625,14.9478561328125L80.093578515625,15.7910161328125C78.967078515625,16.3263161328125,77.681378515625,16.8778861328125,76.234678515625,17.4503861328125C77.056978515625,18.166286132812502,78.213278515625,18.6547861328125,79.702578515625,18.9173861328125C79.374778515625,19.162086132812497,78.971678515625,19.512186132812502,78.495078515625,19.9650861328125C75.464778515625,19.1860861328125,73.739178515625,17.3602861328125,73.315478515625,14.4863261328125L71.390378515625,14.4863261328125L70.085078515625,18.795786132812502C71.346678515625,18.4431861328125,72.594578515625,18.0533861328125,73.826578515625,17.6268861328125C73.657578515625,18.1164861328125,73.546578515625,18.5010861328125,73.49367851562499,18.7824861328125C72.206278515625,19.1452861328125,70.917678515625,19.5483861328125,69.627978515625,19.9920861328125C69.319378515625,20.1090861328125,69.015778515625,20.236086132812503,68.717778515625,20.3726861328125L68.273878515625,19.4216861328125C68.59297851562499,19.2775861328125,68.813178515625,19.008986132812502,68.931078515625,18.6196861328125L71.996978515625,8.4921061328125L76.019678515625,8.4921061328125C75.917678515625,8.0525061328125,75.794878515625,7.6168921328125,75.651678515625,7.1864041328125L76.880978515625,6.8057861328125C77.064978515625,7.3610391328125,77.218678515625,7.9237961328125,77.341578515625,8.4921061328125L81.285478515625,8.4921061328125L79.354078515625,14.8679661328125L78.145478515625,14.8679661328125L78.261578515625,14.4863261328125L74.539078515625,14.4863261328125C74.724178515625,15.3472961328125,75.076078515625,16.1136261328125,75.593578515625,16.7842861328125C76.861478515625,16.2754361328125,78.186878515625,15.6643061328125,79.569178515625,14.9478561328125ZM68.814878515625,7.1309391328125C69.454878515625,7.6738791328125,70.167278515625,8.3374161328125,70.94877851562501,9.1159561328125C70.493878515625,9.4334761328125,70.096578515625,9.713846132812499,69.75737851562499,9.9580961328125C68.89947851562499,9.0075661328125,68.23937851562499,8.3140061328125,67.77757851562501,7.8789461328125L68.814878515625,7.1309391328125ZM67.144578515625,10.6526761328125C67.794878515625,11.1330261328125,68.539478515625,11.7492361328125,69.383578515625,12.5018261328125C68.876478515625,12.8824461328125,68.47907851562499,13.177066132812499,68.193878515625,13.384676132812501C67.273878515625,12.4702761328125,66.578778515625,11.822516132812499,66.110678515625,11.4408761328125L67.144578515625,10.6526761328125ZM67.508478515625,14.6491561328125C67.883378515625,14.8124961328125,68.260078515625,14.9666761328125,68.641278515625,15.1111961328125C67.479178515625,16.915086132812498,66.368878515625,18.6410861328125,65.307378515625,20.2907861328125L64.04757851562499,19.884186132812502C65.151578515625,18.3698861328125,66.30617851562499,16.625016132812497,67.508478515625,14.6491561328125ZM96.685178515625,10.4761061328125L94.777278515625,10.4761061328125L94.689878515625,10.6043361328125C94.143078515625,12.4626461328125,93.955678515625,14.0899361328125,94.126978515625,15.4846861328125C94.932578515625,14.3616661328125,95.785278515625,12.6916261328125,96.685178515625,10.4761061328125ZM95.689278515625,6.9411391328125L96.720278515625,7.1044791328125C96.311978515625,7.9154661328125,95.871278515625,8.7133361328125,95.398878515625,9.4965661328125L98.827078515625,9.4965661328125L98.530378515625,10.476606132812499L97.766778515625,10.476606132812499C96.757078515625,13.0732561328125,95.624278515625,15.1284961328125,94.365078515625,16.6407861328125C94.668678515625,17.6518861328125,95.206278515625,18.5148861328125,95.973878515625,19.2312861328125C95.634078515625,19.5844861328125,95.305778515625,19.9335861328125,94.990678515625,20.2774861328125C94.283478515625,19.4993861328125,93.762378515625,18.602386132812498,93.458878515625,17.640686132812498C92.535378515625,18.5876861328125,91.440578515625,19.498986132812497,90.174978515625,20.3731861328125C90.022178515625,20.0777861328125,89.847778515625,19.791586132812498,89.652878515625,19.5162861328125C91.091578515625,18.5830861328125,92.277178515625,17.608086132812502,93.210978515625,16.5939761328125C92.998878515625,15.3335561328125,93.064378515625,13.9225261328125,93.412278515625,12.3583261328125C93.135678515625,12.7084161328125,92.853978515625,13.0452761328125,92.564178515625,13.3719561328125C92.410278515625,13.1195861328125,92.226378515625,12.8824761328125,92.015578515625,12.6646561328125C93.416878515625,11.1147061328125,94.641578515625,9.207036132812501,95.689278515625,6.9411391328125ZM86.766378515625,11.508556132812501L87.775578515625,8.1781461328125L88.792678515625,8.1781461328125L88.063078515625,10.5844861328125L89.368278515625,10.5844861328125L90.414178515625,7.1314491328125L91.462978515625,7.1314491328125L90.417678515625,10.5844861328125L91.721778515625,10.5844861328125L92.454378515625,8.1649161328125L93.473178515625,8.1649161328125L92.328978515625,11.9451461328125L91.310678515625,11.9451461328125L91.441178515625,11.5095761328125L86.766378515625,11.5095761328125L86.766378515625,11.508556132812501ZM86.717578515625,12.7185961328125L91.775278515625,12.7185961328125L91.486578515625,13.6701361328125L86.430078515625,13.6701361328125L86.717578515625,12.7185961328125ZM89.126778515625,15.8459661328125L87.027478515625,15.8459661328125L86.838878515625,16.4713461328125C86.344978515625,18.1021861328125,85.458878515625,19.2618861328125,84.177178515625,19.9513861328125C84.051478515625,19.6518861328125,83.900978515625,19.361086132812503,83.726978515625,19.081186132812498C84.707378515625,18.6094861328125,85.399078515625,17.7042861328125,85.806178515625,16.361936132812502L86.241978515625,14.9208861328125L90.472278515625,14.9208861328125L89.756378515625,17.2859861328125C90.446778515625,16.8664861328125,91.132178515625,16.4407361328125,91.812578515625,16.0087961328125C91.789078515625,16.4072261328125,91.772378515625,16.7552761328125,91.765478515625,17.054986132812502C90.941678515625,17.5268861328125,90.131078515625,18.0165861328125,89.334378515625,18.5234861328125C89.043378515625,18.7137861328125,88.775478515625,18.8944861328125,88.532778515625,19.066986132812502L87.983678515625,18.1973861328125C88.344178515625,17.9525861328125,88.587978515625,17.6268861328125,88.711678515625,17.2182861328125L89.126778515625,15.8459661328125ZM82.729378515625,10.5570061328125C84.415278515625,9.3973461328125,85.775078515625,8.2142761328125,86.808378515625,7.0083071328125L87.651878515625,7.4845881328125C86.231378515625,9.0355561328125,84.597878515625,10.4237061328125,82.789178515625,11.6169361328125C82.779178515625,11.2632361328125,82.759278515625,10.9098161328125,82.729378515625,10.5570061328125ZM81.323478515625,14.9346261328125C82.883478515625,13.7388361328125,84.328978515625,12.329836132812499,85.656078515625,10.7066061328125L86.578978515625,11.1279361328125C85.996978515625,11.8082461328125,85.388278515625,12.4703161328125,84.753878515625,13.1129461328125L82.592478515625,20.2494861328125L81.510378515625,20.2494861328125L83.241078515625,14.5397561328125C82.656378515625,15.0587961328125,82.044678515625,15.5534161328125,81.407978515625,16.0220261328125C81.390078515625,15.6589961328125,81.361878515625,15.2964061328125,81.323478515625,14.9346261328125ZM113.096978515625,8.4778561328125C112.531978515625,8.1682861328125,111.950978515625,7.8821761328125,111.354978515625,7.6204501328125005L112.056978515625,6.9268921328125C112.656978515625,7.1687461328125,113.245978515625,7.4318641328125,113.821978515625,7.7156051328125L113.096978515625,8.4778561328125ZM112.092978515625,11.1147061328125L109.119578515625,11.1147061328125L108.843578515625,12.0255461328125L111.815978515625,12.0255461328125L112.092978515625,11.1147061328125ZM108.316878515625,13.7657961328125L111.290978515625,13.7657961328125L111.569978515625,12.8407161328125L108.596878515625,12.8407161328125L108.316878515625,13.7657961328125ZM104.756478515625,12.025036132812499L107.699278515625,12.025036132812499L107.974678515625,11.1141961328125L105.033578515625,11.1141961328125L104.756478515625,12.025036132812499ZM104.230278515625,13.7657961328125L107.171478515625,13.7657961328125L107.450878515625,12.8407161328125L104.509778515625,12.8407161328125L104.230278515625,13.7657961328125ZM102.550178515625,17.7892861328125L103.472478515625,17.1099861328125C104.088678515625,17.5222861328125,104.676078515625,17.9673861328125,105.231378515625,18.4425861328125L104.249878515625,19.162086132812497C103.716878515625,18.6729861328125,103.149178515625,18.2143861328125,102.550178515625,17.7892861328125ZM110.817978515625,15.3284761328125L111.043978515625,14.5809761328125L108.069078515625,14.5809761328125L107.807378515625,15.4505961328125L106.661378515625,15.4505961328125L106.925878515625,14.5809761328125L103.983678515625,14.5809761328125L103.674278515625,15.6007061328125L102.528278515625,15.6007061328125L104.142378515625,10.271036132812501L108.231178515625,10.271036132812501L108.503178515625,9.3729161328125L103.635778515625,9.3729161328125L103.899678515625,8.5032961328125L108.765378515625,8.5032961328125L109.243178515625,6.9263831328125L110.388978515625,6.9263831328125L109.910978515625,8.5032961328125L114.999978515625,8.5032961328125L114.735978515625,9.3729161328125L109.645978515625,9.3729161328125L109.373078515625,10.271036132812501L113.491978515625,10.271036132812501L111.962978515625,15.3279561328125L110.817978515625,15.3279561328125L110.817978515625,15.3284761328125ZM101.163278515625,16.1711261328125L109.323078515625,16.1711261328125L109.560978515625,15.3834261328125L110.736978515625,15.3834261328125L110.498978515625,16.1711261328125L113.058978515625,16.1711261328125L112.795978515625,17.041286132812502L110.234978515625,17.041286132812502L109.761978515625,18.6059861328125C109.451278515625,19.629786132812498,108.661878515625,20.142186132812498,107.388178515625,20.142186132812498C106.783878515625,20.142186132812498,106.039278515625,20.131486132812498,105.153178515625,20.1141861328125C105.198078515625,19.8241861328125,105.237178515625,19.489286132812502,105.267678515625,19.1076861328125C106.107678515625,19.1712861328125,106.860978515625,19.2033861328125,107.528478515625,19.2033861328125C108.112678515625,19.2033861328125,108.478378515625,18.9585861328125,108.625678515625,18.4690861328125L109.059178515625,17.0407861328125L100.899378515625,17.0407861328125L101.163278515625,16.1711261328125ZM98.905278515625,10.7610561328125L100.511778515625,10.7610561328125L101.672178515625,6.9268921328125L102.850378515625,6.9268921328125L101.688278515625,10.7610561328125L103.215478515625,10.7610561328125L102.919378515625,11.7400761328125L101.392178515625,11.7400761328125L98.798278515625,20.3054861328125L97.621878515625,20.3054861328125L100.215678515625,11.7400761328125L98.609678515625,11.7400761328125L98.905278515625,10.7610561328125ZM55.424878515625,24.1309861328125L51.644878515625,29.7919861328125L50.742078515625,29.7919861328125L50.412578515625,25.5878861328125L47.669278515625,29.7919861328125L46.753278515625,29.7919861328125L46.311678515625,24.1309861328125L47.430078515625,24.1309861328125L47.715278515625,28.3508861328125L50.483878515625,24.1309861328125L51.298078515625,24.1309861328125L51.629878515625,28.3681861328125L54.525578515625,24.1309861328125L55.424878515625,24.1309861328125ZM60.808578515625,26.3836861328125C60.893678515625,26.0656861328125,60.914978515625,25.7842861328125,60.866078515625,25.5374861328125C60.816678515625,25.2916861328125,60.671778515625,25.0810861328125,60.431978515625,24.9074861328125C60.191078515625,24.7329861328125,59.864478515625,24.6454861328125,59.452178515625,24.6454861328125C58.898478515625,24.6454861328125,58.380978515625,24.8041861328125,57.899678515625,25.1171861328125C57.418378515625,25.4310861328125,57.073978515625,25.8529861328125,56.866378515625,26.3836861328125L60.808578515625,26.3836861328125ZM60.349178515625,28.1040861328125L61.336478515625,28.2719861328125C61.001278515625,28.7558861328125,60.510778515625,29.1563861328125,59.865078515625,29.4723861328125C59.228878515625,29.7878861328125,58.511078515625,29.9519861328125,57.781778515625,29.9486861328125C56.801478515625,29.9486861328125,56.091278515625,29.6764861328125,55.650278515625,29.1319861328125C55.208678515625,28.5874861328125,55.121278515625,27.8750861328125,55.388078515625,26.9912861328125C55.661778515625,26.0900861328125,56.197078515625,25.3623861328125,56.994678515625,24.8072861328125C57.792178515625,24.2510861328125,58.667278515625,23.9727861328125,59.618378515625,23.9727861328125C60.556178515625,23.9727861328125,61.234678515625,24.2297861328125,61.648678515625,24.7416861328125C62.063878515625,25.2529861328125,62.125378515625,26.0193861328125,61.828678515625,27.0390861328125L56.617978515625,27.0390861328125C56.358078515625,27.8949861328125,56.410478515625,28.4719861328125,56.773878515625,28.7711861328125C57.126378515625,29.0663861328125,57.595578515625,29.2276861328125,58.080778515625,29.2204861328125C58.995078515625,29.2204861328125,59.751778515625,28.8474861328125,60.349178515625,28.1040861328125ZM66.14057851562501,22.1408861328125L65.845078515625,23.1214861328125L64.644478515625,23.1214861328125L64.939978515625,22.1408861328125L66.14057851562501,22.1408861328125ZM65.504078515625,24.1304861328125L63.789378515625,29.7919861328125L62.673878515625,29.7919861328125L64.38917851562499,24.1304861328125L65.504078515625,24.1304861328125ZM67.799478515625,27.5718861328125C67.675878515625,28.1539861328125,67.77417851562501,28.5752861328125,68.096178515625,28.8378861328125C68.407378515625,29.0961861328125,68.820178515625,29.2369861328125,69.24677851562501,29.2301861328125C69.815978515625,29.2301861328125,70.334678515625,29.0362861328125,70.80157851562501,28.6470861328125C71.266178515625,28.2577861328125,71.602478515625,27.7249861328125,71.807778515625,27.0476861328125C72.029178515625,26.3180861328125,72.033778515625,25.7445861328125,71.822678515625,25.3283861328125C71.61227851562501,24.9105861328125,71.208078515625,24.7024861328125,70.610678515625,24.7024861328125C70.14147851562501,24.7024861328125,69.672778515625,24.8510861328125,69.20647851562501,25.1486861328125C68.746678515625,25.4366861328125,68.39177851562499,25.8369861328125,68.185278515625,26.3007861328125L67.799478515625,27.5718861328125ZM66.550578515625,29.7919861328125L66.011778515625,29.7919861328125L68.329078515625,22.1408861328125L69.443378515625,22.1408861328125L68.555578515625,25.0723861328125C69.28867851562501,24.3401861328125,70.105178515625,23.9732861328125,71.005078515625,23.9732861328125C71.828478515625,23.9732861328125,72.441478515625,24.2302861328125,72.842178515625,24.7426861328125C73.24417851562501,25.2545861328125,73.29587851562499,25.9989861328125,72.999778515625,26.9759861328125C72.745578515625,27.8165861328125,72.259178515625,28.5233861328125,71.538078515625,29.0932861328125C70.819378515625,29.6641861328125,70.02067851562501,29.9496861328125,69.14607851562499,29.9496861328125C68.170278515625,29.9496861328125,67.533278515625,29.5848861328125,67.23247851562499,28.8566861328125L66.550578515625,29.7919861328125ZM76.654478515625,29.2199861328125C77.221978515625,29.2199861328125,77.753878515625,29.0347861328125,78.248978515625,28.6643861328125C78.746278515625,28.2948861328125,79.111478515625,27.7188861328125,79.348378515625,26.9382861328125C79.584678515625,26.1541861328125,79.556478515625,25.5847861328125,79.260978515625,25.2311861328125C78.965378515625,24.8795861328125,78.549078515625,24.7024861328125,78.007478515625,24.7024861328125C77.453678515625,24.7024861328125,76.931078515625,24.8805861328125,76.438278515625,25.2372861328125C75.947178515625,25.5939861328125,75.583778515625,26.1592861328125,75.350378515625,26.9321861328125C75.102578515625,27.7509861328125,75.117478515625,28.3371861328125,75.393478515625,28.6897861328125C75.672378515625,29.0433861328125,76.090978515625,29.2199861328125,76.654478515625,29.2199861328125ZM76.349178515625,29.9481861328125C75.364178515625,29.9481861328125,74.683378515625,29.6606861328125,74.304978515625,29.0841861328125C73.926678515625,28.5075861328125,73.869178515625,27.7941861328125,74.126178515625,26.9413861328125C74.400478515625,26.0396861328125,74.927778515625,25.3191861328125,75.710878515625,24.7812861328125C76.495178515625,24.2419861328125,77.348478515625,23.9732861328125,78.271378515625,23.9732861328125C79.260978515625,23.9732861328125,79.954978515625,24.2561861328125,80.353378515625,24.8235861328125C80.753078515625,25.3898861328125,80.824878515625,26.0981861328125,80.567878515625,26.9464861328125C80.300478515625,27.8292861328125,79.772678515625,28.5503861328125,78.988978515625,29.1100861328125C78.204678515625,29.6692861328125,77.324878515625,29.9481861328125,76.349178515625,29.9481861328125ZM83.268078515625,28.5355861328125L82.888578515625,29.7919861328125L81.295878515625,29.7919861328125L81.675978515625,28.5355861328125L83.268078515625,28.5355861328125ZM89.859378515625,27.8069861328125L90.826478515625,27.9468861328125C90.494178515625,28.5727861328125,90.031278515625,29.0627861328125,89.435578515625,29.4168861328125C88.850578515625,29.7688861328125,88.157978515625,29.9543861328125,87.450678515625,29.9486861328125C86.460478515625,29.9486861328125,85.794078515625,29.6596861328125,85.450278515625,29.0846861328125C85.105778515625,28.5075861328125,85.059778515625,27.8048861328125,85.311078515625,26.9749861328125C85.570978515625,26.1154861328125,86.060878515625,25.3990861328125,86.781978515625,24.8286861328125C87.500678515625,24.2592861328125,88.331578515625,23.9727861328125,89.273978515625,23.9727861328125C90.055378515625,23.9727861328125,90.626378515625,24.1574861328125,90.986278515625,24.5248861328125C91.345178515625,24.8932861328125,91.494678515625,25.3690861328125,91.430278515625,25.9516861328125L90.376278515625,26.1027861328125C90.469378515625,25.1695861328125,90.039878515625,24.7024861328125,89.086578515625,24.7024861328125C88.471278515625,24.7024861328125,87.935378515625,24.9079861328125,87.479378515625,25.3216861328125C87.024578515625,25.7348861328125,86.696878515625,26.2696861328125,86.496678515625,26.9265861328125C86.277678515625,27.6532861328125,86.271878515625,28.2165861328125,86.478878515625,28.6169861328125C86.684178515625,29.0189861328125,87.087878515625,29.2204861328125,87.682978515625,29.2204861328125C88.604078515625,29.2204861328125,89.329178515625,28.7482861328125,89.859378515625,27.8069861328125ZM94.625478515625,29.2199861328125C95.192478515625,29.2199861328125,95.723778515625,29.0347861328125,96.219978515625,28.6643861328125C96.715078515625,28.2948861328125,97.080178515625,27.7188861328125,97.317078515625,26.9382861328125C97.555178515625,26.1541861328125,97.525778515625,25.5847861328125,97.229678515625,25.2311861328125C96.935278515625,24.8795861328125,96.517878515625,24.7024861328125,95.978478515625,24.7024861328125C95.423078515625,24.7024861328125,94.901478515625,24.8805861328125,94.408778515625,25.2372861328125C93.917678515625,25.5939861328125,93.555478515625,26.1592861328125,93.319678515625,26.9321861328125C93.071878515625,27.7509861328125,93.086778515625,28.3371861328125,93.363378515625,28.6897861328125C93.641078515625,29.0433861328125,94.059678515625,29.2199861328125,94.625478515625,29.2199861328125ZM94.317878515625,29.9481861328125C93.332878515625,29.9481861328125,92.652678515625,29.6606861328125,92.274878515625,29.0841861328125C91.897178515625,28.5075861328125,91.837878515625,27.7941861328125,92.097278515625,26.9413861328125C92.369178515625,26.0396861328125,92.896478515625,25.3191861328125,93.680778515625,24.7812861328125C94.463978515625,24.2419861328125,95.317278515625,23.9732861328125,96.240078515625,23.9732861328125C97.229678515625,23.9732861328125,97.924878515625,24.2561861328125,98.323978515625,24.8235861328125C98.722978515625,25.3898861328125,98.793678515625,26.0981861328125,98.536678515625,26.9464861328125C98.269278515625,27.8292861328125,97.742578515625,28.5503861328125,96.957678515625,29.1100861328125C96.175178515625,29.6692861328125,95.293678515625,29.9481861328125,94.317878515625,29.9481861328125ZM108.960878515625,29.7919861328125L107.874678515625,29.7919861328125L108.941278515625,26.2717861328125C109.049978515625,25.9094861328125,109.099978515625,25.6376861328125,109.092478515625,25.4555861328125C109.082178515625,25.2748861328125,108.978078515625,25.1084861328125,108.776778515625,24.9573861328125C108.576778515625,24.8062861328125,108.323178515625,24.7304861328125,108.014378515625,24.7304861328125C107.589978515625,24.7304861328125,107.130578515625,24.8856861328125,106.642978515625,25.1919861328125C106.154278515625,25.5002861328125,105.815578515625,25.9714861328125,105.623478515625,26.6024861328125L104.657478515625,29.7919861328125L103.578278515625,29.7919861328125L104.705878515625,26.0640861328125C104.857578515625,25.5674861328125,104.812778515625,25.2163861328125,104.574178515625,25.0097861328125C104.347878515625,24.8095861328125,104.039678515625,24.6988861328125,103.719678515625,24.7029861328125C103.245878515625,24.7029861328125,102.784778515625,24.8621861328125,102.337378515625,25.1843861328125C101.897978515625,25.4948861328125,101.584078515625,25.9229861328125,101.442678515625,26.4045861328125L100.415778515625,29.7914861328125L99.350878515625,29.7914861328125L101.065478515625,24.1299861328125L102.024578515625,24.1299861328125L101.695678515625,25.2178861328125C102.481778515625,24.3874861328125,103.343078515625,23.9737861328125,104.280878515625,23.9737861328125C104.797278515625,23.9737861328125,105.195178515625,24.1055861328125,105.474578515625,24.3706861328125C105.752378515625,24.6367861328125,105.888078515625,24.9553861328125,105.879978515625,25.3303861328125C106.645878515625,24.4256861328125,107.537178515625,23.9737861328125,108.556078515625,23.9737861328125C109.043678515625,23.9737861328125,109.437478515625,24.0836861328125,109.738978515625,24.3034861328125C110.037978515625,24.5238861328125,110.200978515625,24.7777861328125,110.225978515625,25.0632861328125C110.249978515625,25.3491861328125,110.182978515625,25.7521861328125,110.026978515625,26.2712861328125L108.960878515625,29.7919861328125Z" fill="#000000" fill-opacity="1"/></g></g></svg>