<svg xmlns="http://www.w3.org/2000/svg" xmlns:xlink="http://www.w3.org/1999/xlink" fill="none" version="1.1" width="167" height="42" viewBox="0 0 167 42"><g style="mix-blend-mode:passthrough"><g><path d="M124.43484,27.0625C124.43355,27.511200000000002,124.50743,27.9559,124.65455,28.384900000000002C124.66178,28.415100000000002,124.67207,28.444699999999997,124.68531,28.473300000000002C125.4007,30.538899999999998,127.5756,31.971899999999998,129.9934,31.9709L129.9934,36.9992C127.2559,36.9992,125.29608999999999,37.0856,122.3037,35.5078C118.91144,33.707899999999995,117,30.416600000000003,117,26.99958C117,23.47447,119.13993,19.94348,122.76728,18.24184C125.40375,17.00785269,127.40090000000001,17,130,17L130,22.02632C126.92887999999999,22.02631,124.43924,24.25292,124.43924,26.99958L124.43484,27.0625Z" fill="#69C9D0" fill-opacity="1"/><path d="M135.5595,27.0625C135.55974,27.5111,135.48586,27.9557,135.33975,28.384900000000002C135.33975,28.4143,135.31998,28.4438,135.30899,28.473300000000002C134.59189,30.5383,132.41745,31.9709,130,31.9709L130,36.9992C132.7358,36.9992,134.6981,37.0856,137.68002,35.5078C141.0838,33.707899999999995,143,30.416600000000003,143,26.99958C143,23.47447,140.8597,19.94348,137.23175,18.24184C134.59483,17.00785269,132.59737,17,130,17L130,22.02632C133.07083,22.0274,135.55951,24.25364,135.5595,26.99958L135.5595,27.0625Z" fill="#EE1D52" fill-opacity="1"/><path d="M44,13L64.5453,13L62.646699999999996,17.95094L57.262,17.95094L57.262,36.900099999999995L50.65623,36.900099999999995L50.65623,17.95094L44.0000020568,17.95094L44,13ZM98.4491,13L98.4491,17.95094L105.1054,17.95094L105.1054,36.900099999999995L111.7199,36.900099999999995L111.7199,17.95094L117.0958,17.95094L118.9944,13L98.4491,13ZM69.0157,18.6423C70.7836,18.64124,72.2157,17.38512,72.2144,15.83651C72.2132,14.28806,70.779,13.0334987,69.0113,13.0345625C67.24340000000001,13.0356264,65.8113,14.29174,65.8125,15.84036C65.8125,17.38924,67.2474,18.64442,69.0157,18.6423ZM65.8125,36.900099999999995L72.2978,36.900099999999995L72.2978,20.62422L65.8125,20.62422L65.8125,36.900099999999995ZM95.6297,18.5002L88.0438,18.5002L81.506,24.227L81.506,13.0192L75.0624,13.0192L75.0427,36.900099999999995L81.5476,36.900099999999995L81.5476,30.6778L83.57130000000001,29.0627L89.88550000000001,36.892399999999995L96.8399,36.892399999999995L87.693,25.442700000000002L95.6297,18.5002ZM157.844,25.4465L165.774,18.5002L158.191,18.5002L151.651,24.227L151.651,13.0192L145.209,13.0192L145.179,36.900099999999995L151.686,36.900099999999995L151.686,30.6778L153.72899999999998,29.0627L160.043,36.892399999999995L167,36.892399999999995L157.844,25.4465ZM141.1687,27.2268C141.1687,32.6233,136.1064,37,129.8623,37C123.6183,37,118.556,32.6233,118.556,27.2268C118.556,21.830289999999998,123.6183,17.45356,129.8623,17.45356C136.1064,17.45356,141.1687,21.83222,141.1687,27.230600000000003L141.1687,27.2268ZM135.4092,27.2268C135.4092,24.5434,132.92579999999998,22.36802,129.8623,22.36802C126.7989,22.36802,124.3155,24.5434,124.3155,27.2268C124.3155,29.9102,126.7989,32.085499999999996,129.8623,32.085499999999996C132.924,32.085499999999996,135.4068,29.9125,135.4092,27.230600000000003L135.4092,27.2268Z" fill="#000000" fill-opacity="1"/><path d="M1,35.9817L1.142715,36.3676C1.124441,36.3235,1.0722271,36.1884,1,35.9817ZM6.64773,27.236C6.89835,25.1624,7.74942,24.0013,9.35324,22.8111Q11.648,21.1992,14.5145,22.111L14.5145,16.701700000000002C15.211,16.6839,15.9089,16.7253,16.5978,16.8251L16.5978,23.7863Q13.7322,22.8745,11.4374,24.4872C9.83447,25.6766,8.98166,26.8385,8.7319,28.9122C8.724070000000001,30.0382,8.93553,31.5101,9.90931,32.7828Q9.54817,32.5978,9.17311,32.3611C7.02802,30.9217,6.63729,28.7621,6.64773,27.236ZM28.4337,6.69998C26.8551,4.97135,26.2581,3.22605,26.0423,2L28.0281,2Q27.6322,5.21472,30.5179,8.37611L30.5579,8.418610000000001C29.7802,7.92979,29.0669,7.35262,28.4337,6.69998ZM38,11.60083L38,18.422Q35.4659,18.3228,33.5906,17.8461Q30.9721,17.179299999999998,29.2891,16.156599999999997Q28.1265,15.4273,28.0325,15.3765L28.0325,29.4623C28.0325,30.2466,27.8176,32.205200000000005,27.1623,33.838899999999995C26.3069,35.9759,24.9867,37.3786,24.7439,37.6654Q23.1384,39.5615,20.3058,40.8384C17.7526,41.9903,15.5109,41.9611,14.8408,41.9903Q10.96575,42.1436,7.47878,39.8791C6.7248,39.38,6.02085,38.8146,5.37633,38.1904L5.39374,38.2029Q8.88158,40.4675,12.7558,40.3141C13.4267,40.285,15.6684,40.3141,18.2208,39.1623Q21.0507,37.8854,22.6589,35.9892C22.8991,35.7025,24.2253,34.2998,25.0772,32.1619C25.7308,30.5291,25.9475,28.5696,25.9475,27.7853L25.9475,13.7012Q26.0414,13.7529,27.2032,14.4822Q28.8871,15.5057,31.5056,16.171599999999998Q33.3817,16.648400000000002,35.9149,16.7476L35.9149,11.40246C36.7817,11.59667,37.5205,11.64917,38,11.60083Z" fill="#EE1D52" fill-opacity="1"/><path d="M36,11.3226L36,16.6206Q33.490899999999996,16.5223,31.6326,16.049599999999998Q29.0391,15.3885,27.3712,14.3745Q26.2206,13.6514,26.1275,13.6002L26.1275,27.5679C26.1275,28.3456,25.9146,30.2884,25.2655,31.9074C24.4183,34.0271,23.1107,35.4179,22.8703,35.7022Q21.2791,37.5822,18.4744,38.8483C15.9464,39.9904,13.7261,39.9614,13.0615,39.9904Q9.22421,40.1424,5.76961,37.8971L5.75237,37.8847C5.38762,37.5314,5.04433,37.1584,4.72409,36.7674C3.62168,35.4228,2.945933,33.832899999999995,2.7761329999999997,33.3792C2.775837,33.3772,2.775837,33.375299999999996,2.7761329999999997,33.373400000000004C2.5029019999999997,32.585,1.9288573,30.6917,2.00729362,28.8579C2.146065,25.6226,3.28381,23.6368,3.58462,23.1393C4.381679999999999,21.782,5.4169,20.5693,6.64705,19.5519C7.73119,18.6751,8.96298,17.9757,10.28611,17.4859C11.71423,16.9116,13.2542,16.6017,14.8026,16.5768L14.8026,21.9402Q11.96342,21.0394,9.691379999999999,22.6343C8.10285,23.8144,7.25988,24.9656,7.01165,27.0217C7.0013,28.5348,7.38831,30.676,9.51124,32.104Q9.882729999999999,32.339600000000004,10.24043,32.5222C10.61133,33.0045,11.06268,33.4247,11.57642,33.7659C13.6502,35.0791,15.3879,35.1708,17.6099,34.318C19.0916,33.747699999999995,20.2069,32.4627,20.7241,31.0388C21.049,30.1496,21.0447,29.2546,21.0447,28.329L21.0447,2L26.2163,2C26.43,3.21563,27.0213,4.94611,28.5848,6.66006C29.212,7.30715,29.9186,7.87942,30.6888,8.364090000000001C30.9163,8.59962,32.079899999999995,9.764009999999999,33.5737,10.47885C34.3455,10.84809,35.1607,11.13159,36,11.3226Z" fill="#000000" fill-opacity="1"/><path d="M10.4385,16.789369999999998C9.10353,17.32254,7.86066,18.0837,6.76677,19.03805C5.52516,20.14794,4.48091,21.47061,3.67768,22.95074C3.37417,23.49043,2.22619,25.6537,2.08618,29.1751C2.00704,31.171,2.58624,33.231700000000004,2.86193,34.0898C2.86163,34.091899999999995,2.86163,34.094,2.86193,34.0961C3.03586,34.5854,3.71508,36.316,4.8274,37.7839C5.15051,38.2095,5.4969,38.6154,5.86492,39C4.68581,38.1566,3.63422,37.1369,2.74452,35.974199999999996C1.64177,34.5233,0.961684,32.8107,0.78427,32.3052C0.784063,32.3016,0.784063,32.298,0.78427,32.294399999999996L0.78427,32.2882C0.507714,31.431,-0.0732312,29.3694,0.00764964,27.3707C0.147668,23.84932,1.29564,21.6879,1.59916,21.14641C2.40215,19.66611,3.44643,18.34341,4.68825,17.233719999999998C5.7819,16.279040000000002,7.02483,15.51784,8.36002,14.98504C9.19296,14.627612,10.0624,14.36339,10.9499,14.198004C12.2859,13.9568094,13.6577,13.9357872,15,14.13594L15,15.799949999999999C13.4362,15.82641,11.8809,16.16378,10.4385,16.789369999999998Z" fill="#69C9D0" fill-opacity="1"/><path d="M26.129,1.68504L20.909,1.68504L20.909,28.3684C20.909,29.3064,20.909,30.2109,20.5853,31.1145C20.0581,32.5567,18.93666,33.859,17.44199,34.4369C15.198260000000001,35.3045,13.44434,35.2082,11.35198,33.8774C10.832545,33.5331,10.37578,33.1087,10,32.6212C11.78263,33.5366,13.378219999999999,33.5206,15.35486,32.7569C16.84865,32.179,17.97182,30.8767,18.49731,29.4337C18.826169999999998,28.5325,18.821820000000002,27.6255,18.821820000000002,26.6884L18.821820000000002,0L26.0298,0Q25.948900000000002,0.663294,26.129,1.68504ZM36,9.64792L36,11.1328C35.154399999999995,10.9389,34.333,10.6516,33.5553,10.2777C32.0476,9.55328,30.8731,8.37325,30.6434,8.13457C30.9099,8.30299,31.1865,8.45627,31.4716,8.59351C33.3047,9.47456,35.11,9.73753,36,9.64792Z" fill="#69C9D0" fill-opacity="1"/></g></g></svg>